<svg xmlns="http://www.w3.org/2000/svg" xmlns:xlink="http://www.w3.org/1999/xlink" width="157" height="25" viewBox="0 0 157 25">
  <defs>
    <clipPath id="clip-path">
      <rect id="Rectángulo_1290" data-name="Rectángulo 1290" width="157" height="25" transform="translate(-0.332 -0.431)"/>
    </clipPath>
  </defs>
  <g id="Artboard_17" data-name="Artboard – 17" transform="translate(0.332 0.431)" clip-path="url(#clip-path)">
    <rect id="Rectángulo_1289" data-name="Rectángulo 1289" width="157" height="25" transform="translate(-0.332 -0.431)" fill="rgba(255,255,255,0)"/>
    <path id="Subtraction_59" data-name="Subtraction 59" d="M10.856,21.711,0,10.856,3.619,7.237l3.6,3.6,3.619-3.619-3.6-3.6L10.856,0l3.619,3.619-3.6,3.6,3.619,3.619,3.6-3.6,3.619,3.619Z" transform="translate(0.752 1.302)" fill="#2d709b"/>
    <path id="uptodown" d="M2.934-63.154A3.769,3.769,0,0,0,4.08-60.388a3.769,3.769,0,0,0,2.766,1.146,3.769,3.769,0,0,0,2.766-1.146,3.769,3.769,0,0,0,1.146-2.766V-70h2.934v6.846a6.6,6.6,0,0,1-2,4.844,6.6,6.6,0,0,1-4.844,2A6.6,6.6,0,0,1,2-58.31a6.6,6.6,0,0,1-2-4.844V-70H2.934ZM25.26-60.388a3.769,3.769,0,0,0,1.146-2.766A3.769,3.769,0,0,0,25.26-65.92a3.769,3.769,0,0,0-2.766-1.146,3.769,3.769,0,0,0-2.766,1.146,3.769,3.769,0,0,0-1.146,2.766,3.769,3.769,0,0,0,1.146,2.766,3.769,3.769,0,0,0,2.766,1.146A3.769,3.769,0,0,0,25.26-60.388Zm-9.612-2.766a6.6,6.6,0,0,1,2-4.844,6.6,6.6,0,0,1,4.844-2,6.6,6.6,0,0,1,4.844,2,6.6,6.6,0,0,1,2,4.844,6.6,6.6,0,0,1-2,4.844,6.6,6.6,0,0,1-4.844,2,6.575,6.575,0,0,1-3.912-1.207V-52.4H15.648Z" transform="translate(28.161 75.401)" fill="#333"/>
    <path id="uptodown-2" data-name="uptodown" d="M2.934-83.154v3.912A3.769,3.769,0,0,0,4.08-76.476,3.769,3.769,0,0,0,6.846-75.33V-72.4A6.6,6.6,0,0,1,2-74.4a6.6,6.6,0,0,1-2-4.844V-90H2.934v3.912H6.846v2.934ZM15.648-72.4a6.6,6.6,0,0,1-4.844-2,6.6,6.6,0,0,1-2-4.844,6.6,6.6,0,0,1,2-4.844,6.6,6.6,0,0,1,4.844-2,6.6,6.6,0,0,1,4.844,2,6.6,6.6,0,0,1,2,4.844,6.6,6.6,0,0,1-2,4.844A6.6,6.6,0,0,1,15.648-72.4Zm0-2.934a3.769,3.769,0,0,0,2.766-1.146,3.769,3.769,0,0,0,1.146-2.766,3.769,3.769,0,0,0-1.146-2.766,3.769,3.769,0,0,0-2.766-1.146,3.769,3.769,0,0,0-2.766,1.146,3.769,3.769,0,0,0-1.146,2.766,3.769,3.769,0,0,0,1.146,2.766A3.769,3.769,0,0,0,15.648-75.33Z" transform="translate(59.457 91.489)" fill="#2d709b"/>
    <path id="uptodown-3" data-name="uptodown" d="M9.612-76.476a3.769,3.769,0,0,0,1.146-2.766,3.769,3.769,0,0,0-1.146-2.766,3.769,3.769,0,0,0-2.766-1.146A3.769,3.769,0,0,0,4.08-82.008a3.769,3.769,0,0,0-1.146,2.766A3.769,3.769,0,0,0,4.08-76.476,3.769,3.769,0,0,0,6.846-75.33,3.769,3.769,0,0,0,9.612-76.476Zm4.08-2.766a6.6,6.6,0,0,1-2,4.844,6.6,6.6,0,0,1-4.844,2A6.6,6.6,0,0,1,2-74.4a6.6,6.6,0,0,1-2-4.844,6.6,6.6,0,0,1,2-4.844,6.6,6.6,0,0,1,4.844-2,6.575,6.575,0,0,1,3.912,1.207V-90h2.934Zm8.8,6.846a6.6,6.6,0,0,1-4.844-2,6.6,6.6,0,0,1-2-4.844,6.6,6.6,0,0,1,2-4.844,6.6,6.6,0,0,1,4.844-2,6.6,6.6,0,0,1,4.844,2,6.6,6.6,0,0,1,2,4.844,6.6,6.6,0,0,1-2,4.844A6.6,6.6,0,0,1,22.494-72.4Zm0-2.934a3.769,3.769,0,0,0,2.766-1.146,3.769,3.769,0,0,0,1.146-2.766,3.769,3.769,0,0,0-1.146-2.766,3.769,3.769,0,0,0-2.766-1.146,3.769,3.769,0,0,0-2.766,1.146,3.769,3.769,0,0,0-1.146,2.766,3.769,3.769,0,0,0,1.146,2.766A3.769,3.769,0,0,0,22.494-75.33Zm21.027.336a7.236,7.236,0,0,1-.535.6,6.6,6.6,0,0,1-4.844,2,6.6,6.6,0,0,1-4.844-2,6.6,6.6,0,0,1-2-4.844v-6.846h2.934v6.846a3.769,3.769,0,0,0,1.146,2.766,3.769,3.769,0,0,0,2.766,1.146,3.769,3.769,0,0,0,2.766-1.146,3.769,3.769,0,0,0,1.146-2.766v-6.846h2.934v6.846a3.769,3.769,0,0,0,1.146,2.766A3.769,3.769,0,0,0,48.9-75.33a3.769,3.769,0,0,0,2.766-1.146,3.769,3.769,0,0,0,1.146-2.766v-6.846h2.934v6.846a6.6,6.6,0,0,1-2,4.844,6.6,6.6,0,0,1-4.844,2,6.6,6.6,0,0,1-4.844-2A7.237,7.237,0,0,1,43.52-74.994Zm17.115,2.6H57.7v-6.846a6.6,6.6,0,0,1,2-4.844,6.6,6.6,0,0,1,4.844-2,6.6,6.6,0,0,1,4.844,2,6.6,6.6,0,0,1,2,4.844V-72.4H68.459v-6.846a3.769,3.769,0,0,0-1.146-2.766,3.769,3.769,0,0,0-2.766-1.146,3.769,3.769,0,0,0-2.766,1.146,3.769,3.769,0,0,0-1.146,2.766Z" transform="translate(83.906 91.489)" fill="#333"/>
  </g>
</svg>
